# xmcd
#
# Track frame offsets:
#	150
#	18785
#	33034
#	48427
#	82688
#	95907
#	111932
#	126350
#	144454
#	156323
#
# Disc length: 2305 seconds
#
# Revision: 1
# Processed by: cddbd v1.5.2PL0 Copyright (c) Steve Scherf et al.
# Submitted via: audiograbber 1.83.01
#
DISCID=7908ff0a
DTITLE=Various Artist - CDX 662
DYEAR=2018
DGENRE=Country
TTITLE0=Carrie Underwood - Cry Pretty
TTITLE1=Maddie and Tae - Friends Don't
TTITLE2=Abby Anderson - Make Him Wait
TTITLE3=Chris Stapleton - Millionaire
TTITLE4=Jordan Davis - Take It From Me
TTITLE5=Ryan Sims - American Things
TTITLE6=Ben Cesare - Damn Yankee
TTITLE7=Jeb Barry and the Pawn Shop Saints - Galveston 92
TTITLE8=David Frizzell and Marty Haggard - Lefty, Merle and Me
TTITLE9=Eileen Carey - That Town
EXTD=
EXTT0=
EXTT1=
EXTT2=
EXTT3=
EXTT4=
EXTT5=
EXTT6=
EXTT7=
EXTT8=
EXTT9=
PLAYORDER=
